# File created by Blade
# Date/Time:  Tue Apr 07 20:45:22 2015
# Frame Rate: 120.000 fps
#------------------------------------------------------
:FULLY-SPECIFIED
:DEGREES
870
root 3.619430 34.376465 -3.293688 15.698655 -14.806568 -26.981224
Spine -0.089001 12.036515 14.390823
Head 16.403106 -2.556441 6.594698
LeftShoulder -18.224989 34.058971 30.659788
LeftArm 53.179388 -65.774572 -52.779568
LeftForeArm 12.988090 -0.000000 11.545218
LeftHand 9.917912 0.000000 14.590904
LeftHandThumb1 -26.253704 0.000000 33.147579
RightShoulder 0.758031 14.653764 -27.652163
RightArm 11.645858 40.355552 51.064116
RightForeArm 23.221145 -0.000000 26.613229
RightHand 10.740110 -0.000000 -17.613250
RightHandThumb1 -24.326973 -0.000000 -32.862282
LeftUpLeg -7.107333 -0.030317 21.762446
LeftLeg 7.517514 -0.000000 -0.000000
LeftFoot -6.288011 11.503274 -19.998081
LeftToeBase -11.517430 -0.000000 0.000000
RightUpLeg -23.473184 -11.499202 4.753969
RightLeg 7.488637 -0.000000 -0.000000
RightFoot 21.303755 -9.705900 12.400329
RightToeBase 10.702429 -0.000000 -0.000000
871
root 3.567695 34.359880 -3.264079 15.549972 -14.345920 -26.581919
Spine -0.299392 11.697645 14.073819
Head 16.587765 -2.668099 6.527871
LeftShoulder -18.285113 34.217692 30.460568
LeftArm 53.413308 -65.623084 -52.946585
LeftForeArm 12.920062 -0.000000 11.361229
LeftHand 9.848159 -0.000000 14.736330
LeftHandThumb1 -26.253704 0.000000 33.147579
RightShoulder 0.474479 14.149668 -27.752845
RightArm 11.308826 40.074183 50.634893
RightForeArm 21.590470 -0.000000 26.343321
RightHand 10.661272 -0.000000 -17.628099
RightHandThumb1 -24.326973 -0.000000 -32.862282
LeftUpLeg -7.196433 -0.236462 21.526402
LeftLeg 7.453662 -0.000000 -0.000000
LeftFoot -6.220569 11.290786 -20.029082
LeftToeBase -11.750687 -0.000000 0.000000
RightUpLeg -22.723922 -10.599515 5.392094
RightLeg 7.539335 -0.000000 -0.000000
RightFoot 19.497062 -9.131681 13.583422
RightToeBase 10.326485 -0.000000 -0.000000
872
root 3.513964 34.341418 -3.233469 15.389209 -13.882405 -26.217203
Spine -0.477343 11.324975 13.816034
Head 16.771122 -2.782832 6.426080
LeftShoulder -18.418433 34.379855 30.226277
LeftArm 53.814679 -65.497144 -53.301338
LeftForeArm 12.874831 -0.000000 11.198548
LeftHand 9.789016 0.000000 14.738683
LeftHandThumb1 -26.253704 0.000000 33.147579
RightShoulder 0.240151 13.708932 -27.876368
RightArm 10.911812 39.732189 50.205640
RightForeArm 20.029778 -0.000000 26.104698
RightHand 10.641454 -0.000000 -17.646534
RightHandThumb1 -24.326973 -0.000000 -32.862282
LeftUpLeg -7.268006 -0.425815 21.319744
LeftLeg 7.407761 -0.000000 -0.000000
LeftFoot -6.201006 11.203569 -19.544254
LeftToeBase -11.721909 -0.000000 0.000000
RightUpLeg -21.995782 -9.783530 6.089721
RightLeg 7.621848 -0.000000 -0.000000
RightFoot 17.566428 -8.462508 14.883007
RightToeBase 9.299621 -0.000000 -0.000000
873
root 3.461126 34.321454 -3.201040 15.226753 -13.375266 -25.859602
Spine -0.657842 10.929457 13.593305
Head 16.933292 -2.905118 6.295062
LeftShoulder -18.533132 34.487680 30.020803
LeftArm 54.079851 -65.327442 -53.546132
LeftForeArm 12.989041 0.000000 11.021098
LeftHand 9.811578 -0.000000 14.334798
LeftHandThumb1 -26.253704 0.000000 33.147579
RightShoulder -0.030796 13.207628 -27.995575
RightArm 10.571488 39.255886 49.759672
RightForeArm 18.488850 -0.000000 25.850281
RightHand 10.617169 0.000000 -17.451649
RightHandThumb1 -24.326973 -0.000000 -32.862282
LeftUpLeg -7.352155 -0.681817 21.144474
LeftLeg 7.377895 -0.000000 -0.000000
LeftFoot -6.141185 10.990440 -19.285341
LeftToeBase -11.982850 -0.000000 0.000000
RightUpLeg -21.276867 -9.080852 6.819516
RightLeg 7.676232 -0.000000 -0.000000
RightFoot 15.594443 -7.691947 16.176313
RightToeBase 7.979444 -0.000000 -0.000000
874
root 3.410328 34.300355 -3.166121 15.048404 -12.864973 -25.488122
Spine -0.827446 10.520757 13.370622
Head 17.101634 -3.012601 6.191824
LeftShoulder -18.640249 34.634921 29.840418
LeftArm 54.443471 -65.194911 -53.975488
LeftForeArm 13.031588 -0.000000 10.906811
LeftHand 9.808430 -0.000000 14.244178
LeftHandThumb1 -26.253704 0.000000 33.147579
RightShoulder -0.265462 12.771858 -28.106241
RightArm 10.222865 38.912275 49.367914
RightForeArm 16.678542 -0.000000 25.636843
RightHand 10.355000 -0.000000 -17.496995
RightHandThumb1 -24.326973 -0.000000 -32.862282
LeftUpLeg -7.425232 -0.909579 20.953145
LeftLeg 7.356978 -0.000000 -0.000000
LeftFoot -6.068416 10.705178 -19.122819
LeftToeBase -12.264048 -0.000000 0.000000
RightUpLeg -20.546072 -8.375037 7.513428
RightLeg 7.662137 -0.000000 -0.000000
RightFoot 13.699786 -6.952295 17.581658
RightToeBase 6.751565 -0.000000 -0.000000
875
root 3.360185 34.278815 -3.128975 14.883804 -12.311612 -25.117678
Spine -1.021556 10.117919 13.164521
Head 17.241939 -3.182209 6.063435
LeftShoulder -18.690552 34.500303 29.778436
LeftArm 54.485023 -64.902352 -54.140048
LeftForeArm 13.226714 -0.000000 10.800692
LeftHand 9.840953 -0.000000 14.239919
LeftHandThumb1 -26.253704 0.000000 33.147579
RightShoulder -0.574890 12.352769 -28.188313
RightArm 9.837483 38.327606 48.855054
RightForeArm 14.985882 0.000000 25.370637
RightHand 10.303400 -0.000000 -17.252871
RightHandThumb1 -24.326973 -0.000000 -32.862282
LeftUpLeg -7.522629 -1.156446 20.792336
LeftLeg 7.349917 -0.000000 -0.000000
LeftFoot -5.965242 10.316884 -18.874290
LeftToeBase -12.595654 -0.000000 0.000000
RightUpLeg -19.828066 -7.711851 8.218945
RightLeg 7.588618 -0.000000 -0.000000
RightFoot 12.046769 -6.152921 18.602882
RightToeBase 5.319710 -0.000000 -0.000000
